# xmcd
#
# Track frame offsets:
#	150
#	15999
#	34537
#	50749
#	66850
#	82675
#	98726
#	114485
#	130181
#	144482
#	161725
#	181515
#	199174
#	216442
#	233175
#	252506
#	269111
#	287329
#	305404
#
# Disc length: 4312 seconds
#
# Revision: 1
# Processed by: cddbd v1.5.1PL0 Copyright (c) Steve Scherf et al.
# Submitted via: audiograbber 1.82.01
#
DISCID=0910d613
DTITLE=Reflex - Танцы
DYEAR=2005
DGENRE=Dance
TTITLE0=Танцы
TTITLE1=Сойти с ума
TTITLE2=На моих губах
TTITLE3=Дальний свет
TTITLE4=Люби как любишь
TTITLE5=Падали звёзды
TTITLE6=Я хочу быть рядом с тобой
TTITLE7=Не гони меня, ветер
TTITLE8=Это любовь
TTITLE9=Небо под ногами
TTITLE10=Потому что не было тебя
TTITLE11=Пообещай мне
TTITLE12=Снег в душе
TTITLE13=Моя любовь
TTITLE14=Я тебя всегда буду ждать
TTITLE15=Побег
TTITLE16=Ты уже далеко
TTITLE17=Встречай новый день
TTITLE18=Way To Your Heart (feat DJ Bobo Euro Mix)
EXTD=
EXTT0=
EXTT1=
EXTT2=
EXTT3=
EXTT4=
EXTT5=
EXTT6=
EXTT7=
EXTT8=
EXTT9=
EXTT10=
EXTT11=
EXTT12=
EXTT13=
EXTT14=
EXTT15=
EXTT16=
EXTT17=
EXTT18=
PLAYORDER=
